<?xml version="1.0" encoding="UTF-8" standalone="no"?>
<!DOCTYPE svg PUBLIC "-//W3C//DTD SVG 1.1//EN" "http://www.w3.org/Graphics/SVG/1.1/DTD/svg11.dtd">
<svg version="1.1" xmlns="http://www.w3.org/2000/svg" xmlns:xlink="http://www.w3.org/1999/xlink" preserveAspectRatio="xMidYMid meet" viewBox="0 0 640 640" width="640" height="640"><defs><path d="M640 320C640 496.62 496.61 640 320 640C143.39 640 0 496.62 0 320C0 143.39 143.39 0 320 0C496.61 0 640 143.39 640 320Z" id="c10z1qGxIf"></path><path d="M378.65 98.04L379.5 98.08L380.35 98.14L381.2 98.22L382.04 98.31L382.88 98.41L383.71 98.54L384.54 98.68L385.37 98.83L386.19 99L387.01 99.19L387.82 99.39L388.63 99.61L389.43 99.84L390.23 100.09L391.02 100.35L391.8 100.63L392.58 100.93L393.36 101.24L394.12 101.57L394.88 101.91L395.64 102.26L396.38 102.63L397.12 103.02L397.85 103.42L398.58 103.83L399.3 104.26L400 104.7L400.7 105.16L401.4 105.64L402.08 106.12L402.76 106.62L403.42 107.14L404.08 107.67L404.73 108.21L405.37 108.77L406 109.34L406.62 109.92L407.23 110.52L519.47 222.76L520.69 224.03L521.85 225.34L522.95 226.69L523.98 228.06L524.95 229.47L525.86 230.91L526.71 232.38L527.49 233.87L528.21 235.39L528.87 236.93L529.46 238.48L530 240.06L530.46 241.65L530.87 243.25L531.22 244.87L531.5 246.5L531.72 248.13L531.87 249.77L531.97 251.41L532 253.06L531.97 254.7L531.87 256.35L531.72 257.99L531.5 259.62L531.22 261.25L530.87 262.86L530.46 264.47L530 266.06L529.46 267.63L528.87 269.19L528.21 270.73L527.49 272.25L526.71 273.74L525.86 275.2L524.95 276.64L523.98 278.05L522.95 279.43L521.85 280.78L520.69 282.09L519.47 283.36L501.45 301.37L500.84 301.97L500.22 302.56L499.59 303.13L498.96 303.69L498.31 304.23L497.65 304.76L496.98 305.27L496.31 305.77L495.62 306.26L494.93 306.73L494.23 307.19L493.52 307.64L492.8 308.06L492.08 308.48L491.35 308.88L490.61 309.26L489.86 309.63L489.11 309.99L488.35 310.33L487.58 310.66L486.81 310.97L486.03 311.26L485.24 311.54L484.45 311.81L483.66 312.06L482.85 312.29L482.05 312.51L481.23 312.71L480.42 312.9L479.59 313.07L478.77 313.22L477.94 313.36L477.1 313.48L476.26 313.59L475.42 313.68L474.57 313.75L473.72 313.81L472.87 313.85L472.01 313.88L471.16 313.89L470.3 313.88L469.44 313.85L468.59 313.81L467.74 313.75L466.89 313.68L466.05 313.59L465.21 313.48L464.37 313.36L463.54 313.22L462.72 313.07L461.89 312.9L461.08 312.71L460.26 312.51L459.46 312.29L458.65 312.06L457.86 311.81L457.07 311.54L456.28 311.26L455.5 310.97L454.73 310.66L453.96 310.33L453.2 309.99L452.45 309.63L451.7 309.26L450.96 308.88L450.23 308.48L449.51 308.06L448.79 307.64L448.08 307.19L447.38 306.73L446.69 306.26L446 305.77L445.33 305.27L444.66 304.76L444 304.23L443.36 303.69L442.72 303.13L442.09 302.56L441.47 301.97L440.86 301.37L328.62 189.14L328.02 188.53L327.43 187.91L326.86 187.28L326.31 186.64L325.76 185.99L325.23 185.33L324.72 184.66L324.22 183.99L323.73 183.3L323.26 182.61L322.8 181.91L322.36 181.2L321.93 180.48L321.51 179.76L321.11 179.03L320.73 178.29L320.36 177.54L320 176.79L319.66 176.03L319.33 175.26L319.02 174.49L318.73 173.71L318.45 172.92L318.18 172.13L317.93 171.34L317.7 170.53L317.48 169.73L317.28 168.91L317.09 168.1L316.92 167.28L316.77 166.45L316.63 165.62L316.51 164.78L316.4 163.94L316.31 163.1L316.23 162.25L316.18 161.4L316.14 160.55L316.11 159.7L316.1 158.84L316.11 157.98L316.14 157.12L316.18 156.27L316.23 155.42L316.31 154.57L316.4 153.73L316.51 152.89L316.63 152.06L316.77 151.22L316.92 150.4L317.09 149.58L317.28 148.76L317.48 147.95L317.7 147.14L317.93 146.34L318.18 145.54L318.45 144.75L318.73 143.96L319.02 143.18L319.33 142.41L319.66 141.64L320 140.88L320.36 140.13L320.73 139.38L321.11 138.65L321.51 137.91L321.93 137.19L322.36 136.47L322.8 135.76L323.26 135.06L323.73 134.37L324.22 133.69L324.72 133.01L325.23 132.34L325.76 131.69L326.31 131.04L326.86 130.4L327.43 129.77L328.02 129.15L328.62 128.54L346.63 110.52L347.24 109.92L347.86 109.34L348.49 108.77L349.13 108.21L349.78 107.67L350.44 107.14L351.11 106.62L351.78 106.12L352.46 105.63L353.16 105.16L353.86 104.7L354.57 104.26L355.28 103.83L356.01 103.42L356.74 103.02L357.48 102.63L358.23 102.26L358.98 101.91L359.74 101.56L360.51 101.24L361.28 100.93L362.06 100.63L362.84 100.35L363.63 100.09L364.43 99.84L365.23 99.61L366.04 99.39L366.85 99.19L367.67 99L368.49 98.83L369.32 98.68L370.15 98.54L370.99 98.41L371.82 98.31L372.67 98.22L373.51 98.14L374.36 98.08L375.22 98.04L376.07 98.02L376.93 98.01L377.79 98.02L378.65 98.04Z" id="bULOeysaS"></path><path d="M299.71 186.49L299.96 187.03L300.22 187.56L300.48 188.09L300.75 188.62L301.02 189.15L301.3 189.68L301.58 190.2L301.87 190.72L302.16 191.24L302.46 191.75L302.76 192.26L303.07 192.77L303.38 193.28L303.7 193.79L304.02 194.29L304.34 194.79L304.67 195.29L305.01 195.78L305.35 196.27L305.69 196.76L306.04 197.25L306.4 197.73L306.76 198.21L307.12 198.69L307.49 199.16L307.86 199.63L308.24 200.1L308.62 200.57L309.01 201.03L309.4 201.49L309.8 201.94L310.2 202.4L310.61 202.85L311.02 203.29L311.43 203.74L311.85 204.18L312.28 204.61L312.71 205.05L424.95 317.29L425.38 317.71L425.82 318.14L426.26 318.56L426.7 318.97L427.14 319.38L427.59 319.79L428.05 320.19L428.5 320.59L428.96 320.98L429.42 321.37L429.89 321.75L430.36 322.13L430.83 322.5L431.3 322.87L431.78 323.23L432.26 323.59L432.74 323.95L433.23 324.3L433.72 324.64L434.21 324.98L434.7 325.32L435.2 325.65L435.7 325.97L436.2 326.3L436.71 326.61L437.22 326.92L437.73 327.23L438.24 327.53L438.75 327.83L439.27 328.12L439.79 328.41L440.31 328.69L440.84 328.97L441.37 329.24L441.9 329.51L442.43 329.77L442.96 330.03L443.5 330.28L444.04 330.53L444.58 330.77L400.71 416.89L399.97 418.28L399.18 419.67L398.34 421.05L397.45 422.42L396.52 423.79L395.54 425.14L394.51 426.48L393.45 427.8L392.34 429.11L391.2 430.4L390.02 431.68L388.8 432.94L387.55 434.18L386.27 435.4L384.96 436.59L383.62 437.77L382.25 438.92L380.85 440.04L379.43 441.14L377.99 442.21L376.53 443.25L375.05 444.26L373.55 445.25L372.04 446.19L370.51 447.11L368.96 447.99L367.41 448.83L365.85 449.64L364.27 450.41L362.69 451.14L361.11 451.83L359.52 452.48L357.94 453.08L356.35 453.65L354.76 454.16L353.18 454.63L351.6 455.06L350.03 455.43L348.46 455.75L346.9 456.03L187.64 481.45L187.47 481.48L187.31 481.51L187.14 481.53L186.97 481.56L186.81 481.58L186.64 481.6L186.47 481.63L186.31 481.65L186.14 481.67L185.97 481.69L185.81 481.71L185.64 481.73L185.47 481.75L185.31 481.76L185.14 481.78L184.97 481.8L184.81 481.81L184.64 481.83L184.48 481.84L184.31 481.86L184.14 481.87L183.98 481.88L183.81 481.89L183.65 481.9L183.48 481.91L183.32 481.92L183.15 481.93L182.99 481.94L182.82 481.95L182.66 481.96L182.49 481.96L182.33 481.97L182.17 481.97L182 481.98L181.84 481.98L181.68 481.98L181.51 481.99L181.35 481.99L181.19 481.99L181.03 481.99L180.64 481.99L180.26 481.98L179.88 481.97L179.5 481.96L179.12 481.94L178.74 481.92L178.36 481.9L177.99 481.87L177.62 481.84L177.24 481.81L176.87 481.77L176.5 481.72L176.13 481.68L175.77 481.63L175.4 481.58L175.04 481.52L174.68 481.46L174.32 481.4L173.96 481.33L173.6 481.26L173.24 481.18L172.89 481.1L172.53 481.02L172.18 480.94L171.83 480.85L171.48 480.76L171.14 480.66L170.79 480.56L170.45 480.46L170.11 480.35L169.77 480.25L169.43 480.13L169.09 480.02L168.76 479.9L168.43 479.77L168.1 479.65L167.77 479.52L167.44 479.38L167.11 479.25L166.79 479.11L299 346.9L299.46 347.15L299.92 347.4L300.39 347.64L300.85 347.88L301.32 348.11L301.8 348.33L302.27 348.55L302.75 348.76L303.24 348.97L303.72 349.16L304.21 349.36L304.7 349.54L305.19 349.72L305.68 349.9L306.18 350.07L306.68 350.23L307.18 350.38L307.68 350.53L308.19 350.68L308.69 350.81L309.2 350.94L309.71 351.07L310.23 351.18L310.74 351.29L311.26 351.4L311.78 351.49L312.3 351.58L312.82 351.67L313.34 351.75L313.87 351.82L314.4 351.88L314.92 351.94L315.45 351.99L315.99 352.03L316.52 352.07L317.05 352.1L317.59 352.13L318.13 352.14L318.66 352.15L319.2 352.16L320.03 352.15L320.85 352.13L321.68 352.09L322.5 352.03L323.31 351.96L324.12 351.87L324.93 351.77L325.74 351.65L326.54 351.51L327.34 351.36L328.13 351.2L328.92 351.02L329.7 350.82L330.48 350.61L331.25 350.38L332.02 350.14L332.79 349.89L333.54 349.62L334.3 349.33L335.04 349.03L335.78 348.71L336.52 348.38L337.24 348.04L337.97 347.68L338.68 347.31L339.39 346.92L340.09 346.52L340.78 346.1L341.47 345.67L342.14 345.23L342.81 344.77L343.47 344.3L344.13 343.82L344.77 343.32L345.41 342.8L346.04 342.28L346.66 341.74L347.27 341.19L347.87 340.62L348.46 340.04L349.04 339.45L349.6 338.85L350.16 338.24L350.7 337.62L351.22 336.99L351.73 336.36L352.23 335.71L352.72 335.06L353.19 334.4L353.65 333.73L354.09 333.05L354.52 332.36L354.94 331.67L355.34 330.97L355.73 330.26L356.1 329.55L356.46 328.83L356.8 328.1L357.13 327.37L357.45 326.63L357.75 325.88L358.03 325.13L358.31 324.37L358.56 323.61L358.8 322.84L359.03 322.06L359.24 321.28L359.44 320.5L359.62 319.71L359.78 318.92L359.93 318.12L360.07 317.32L360.19 316.52L360.29 315.71L360.38 314.89L360.45 314.08L360.51 313.26L360.55 312.44L360.57 311.61L360.58 310.78L360.57 309.96L360.55 309.13L360.51 308.31L360.45 307.49L360.38 306.67L360.29 305.86L360.19 305.05L360.07 304.25L359.93 303.45L359.78 302.65L359.62 301.86L359.44 301.07L359.24 300.28L359.03 299.5L358.8 298.73L358.56 297.96L358.31 297.2L358.03 296.44L357.75 295.69L357.45 294.94L357.13 294.2L356.8 293.47L356.46 292.74L356.1 292.02L355.73 291.3L355.34 290.6L354.94 289.9L354.52 289.2L354.09 288.52L353.65 287.84L353.19 287.17L352.72 286.51L352.23 285.86L351.73 285.21L351.22 284.58L350.7 283.95L350.16 283.33L349.6 282.72L349.04 282.12L348.46 281.53L347.87 280.95L347.27 280.38L346.66 279.83L346.04 279.29L345.41 278.76L344.77 278.25L344.13 277.75L343.47 277.27L342.81 276.8L342.14 276.34L341.47 275.9L340.78 275.47L340.09 275.05L339.39 274.65L338.68 274.26L337.97 273.89L337.24 273.53L336.52 273.19L335.78 272.86L335.04 272.54L334.3 272.24L333.54 271.95L332.79 271.68L332.02 271.43L331.25 271.19L330.48 270.96L329.7 270.75L328.92 270.55L328.13 270.37L327.34 270.21L326.54 270.06L325.74 269.92L324.93 269.8L324.12 269.7L323.31 269.61L322.5 269.54L321.68 269.48L320.85 269.44L320.03 269.42L319.2 269.41L318.37 269.42L317.55 269.44L316.73 269.48L315.91 269.54L315.09 269.61L314.28 269.7L313.47 269.8L312.67 269.92L311.86 270.06L311.07 270.21L310.27 270.37L309.49 270.55L308.7 270.75L307.92 270.96L307.15 271.19L306.38 271.43L305.62 271.68L304.86 271.95L304.11 272.24L303.36 272.54L302.62 272.86L301.89 273.19L301.16 273.53L300.44 273.89L299.72 274.26L299.02 274.65L298.32 275.05L297.62 275.47L296.94 275.9L296.26 276.34L295.59 276.8L294.93 277.27L294.28 277.75L293.63 278.25L293 278.76L292.37 279.29L291.75 279.83L291.14 280.38L290.54 280.95L289.95 281.53L289.37 282.12L288.8 282.72L288.25 283.33L287.71 283.95L287.18 284.58L286.67 285.21L286.17 285.86L285.69 286.51L285.22 287.17L284.76 287.84L284.31 288.52L283.88 289.2L283.47 289.9L283.07 290.6L282.68 291.3L282.31 292.02L281.95 292.74L281.6 293.47L281.27 294.2L280.96 294.94L280.66 295.69L280.37 296.44L280.1 297.2L279.84 297.96L279.6 298.73L279.38 299.5L279.17 300.28L278.97 301.07L278.79 301.86L278.62 302.65L278.47 303.45L278.34 304.25L278.22 305.05L278.12 305.86L278.03 306.67L277.96 307.49L277.9 308.31L277.86 309.13L277.84 309.96L277.83 310.78L277.83 311.32L277.84 311.86L277.86 312.4L277.88 312.93L277.91 313.47L277.95 314L278 314.53L278.05 315.06L278.1 315.59L278.17 316.12L278.24 316.64L278.32 317.17L278.4 317.69L278.49 318.21L278.59 318.73L278.69 319.24L278.8 319.76L278.92 320.27L279.04 320.78L279.17 321.29L279.31 321.8L279.45 322.31L279.6 322.81L279.76 323.31L279.92 323.81L280.09 324.31L280.26 324.8L280.44 325.29L280.63 325.78L280.82 326.27L281.02 326.75L281.23 327.23L281.44 327.71L281.66 328.19L281.88 328.66L282.11 329.13L282.35 329.6L282.59 330.07L282.84 330.53L283.09 330.99L150.88 463.2L150.68 462.73L150.49 462.26L150.3 461.79L150.12 461.32L149.95 460.84L149.79 460.36L149.63 459.87L149.48 459.39L149.34 458.89L149.2 458.4L149.07 457.9L148.95 457.4L148.84 456.9L148.73 456.39L148.63 455.88L148.54 455.37L148.45 454.85L148.37 454.33L148.3 453.81L148.24 453.29L148.18 452.76L148.14 452.23L148.09 451.7L148.06 451.17L148.03 450.63L148.02 450.09L148 449.55L148 449.01L148 448.47L148.01 447.92L148.03 447.37L148.06 446.82L148.09 446.27L148.13 445.71L148.18 445.15L148.24 444.6L148.3 444.04L148.37 443.48L148.45 442.91L148.54 442.35L173.97 283.08L174.24 281.53L174.56 279.96L174.94 278.39L175.36 276.81L175.83 275.23L176.35 273.64L176.91 272.05L177.51 270.47L178.16 268.88L178.85 267.3L179.58 265.72L180.35 264.15L181.16 262.58L182 261.03L182.88 259.49L183.8 257.96L184.75 256.44L185.73 254.94L186.74 253.46L187.78 252L188.85 250.56L189.95 249.14L191.07 247.74L192.22 246.38L193.4 245.03L194.59 243.72L195.81 242.44L197.05 241.19L198.31 239.97L199.59 238.79L200.88 237.65L202.19 236.54L203.51 235.48L204.85 234.46L206.2 233.48L207.57 232.54L208.94 231.65L210.32 230.81L211.71 230.02L213.1 229.28L299.22 185.41L299.46 185.95L299.71 186.49Z" id="d2BjvGepjF"></path></defs><g><g><g><use xlink:href="#c10z1qGxIf" opacity="1" fill="#000000" fill-opacity="1"></use></g><g><use xlink:href="#bULOeysaS" opacity="1" fill="#ffffff" fill-opacity="1"></use><g><use xlink:href="#bULOeysaS" opacity="1" fill-opacity="0" stroke="#000000" stroke-width="1" stroke-opacity="0"></use></g></g><g><use xlink:href="#d2BjvGepjF" opacity="1" fill="#ffffff" fill-opacity="1"></use><g><use xlink:href="#d2BjvGepjF" opacity="1" fill-opacity="0" stroke="#000000" stroke-width="1" stroke-opacity="0"></use></g></g></g></g></svg>